STARTFONT 2.1
FONT -sun-conga-bold-r-normal--24-240-75-75-p-167-adobe-fontspecific
SIZE 24 75 75
FONTBOUNDINGBOX 39 28 -6 -5

STARTPROPERTIES 28
FOUNDRY "sun"
FAMILY_NAME "conga"
WEIGHT_NAME "bold"
SLANT "r"
SETWIDTH_NAME "normal"
ADD_STYLE_NAME ""
PIXEL_SIZE 25
POINT_SIZE 240
RESOLUTION_X 75
RESOLUTION_Y 75
SPACING "p"
AVERAGE_WIDTH 167
CHARSET_REGISTRY "adobe"
CHARSET_ENCODING "fontspecific"
COPYRIGHT "© 1999 Sun Microsystems, Inc."
RAW_PIXELSIZE 1000
RAW_POINTSIZE 964
RAW_ASCENT 928
RAW_DESCENT 219
RAW_AVERAGE_WIDTH 6696
FACE_NAME "CongaBoldrg"
_XMBDFED_INFO "Edited with xmbdfed 2.4."
WEIGHT 10
X_HEIGHT -1
QUAD_WIDTH 17
DEFAULT_CHAR 4
FONT_DESCENT 5
FONT_ASCENT 23
ENDPROPERTIES

CHARS 203

STARTCHAR char32
ENCODING 32
SWIDTH 6 0
DWIDTH 12 0
BBX 0 0 0 0
BITMAP
ENDCHAR

STARTCHAR char33
ENCODING 33
SWIDTH 21 0
DWIDTH 6 0
BBX 5 18 1 0
BITMAP
F8
70
70
70
70
60
60
60
60
60
60
60
60
00
00
60
70
60
ENDCHAR

STARTCHAR char34
ENCODING 34
SWIDTH 32 0
DWIDTH 9 0
BBX 7 6 1 12
BITMAP
EE
EE
66
22
22
22
ENDCHAR

STARTCHAR char35
ENCODING 35
SWIDTH 17 0
DWIDTH 15 0
BBX 12 18 1 0
BITMAP
0C60
0C40
0840
08C0
18C0
FFF0
1FF0
18C0
1880
1080
1180
FFE0
FFE0
3180
3180
3100
2100
2300
ENDCHAR

STARTCHAR char36
ENCODING 36
SWIDTH 35 0
DWIDTH 20 0
BBX 16 22 1 -2
BITMAP
0180
0180
03E0
1FFC
3FFF
7182
E182
C180
E180
F180
7FF0
0FFC
018E
0187
0183
C183
C187
F19E
7FFC
1FF0
0180
0180
ENDCHAR

STARTCHAR char37
ENCODING 37
SWIDTH 2 0
DWIDTH 31 0
BBX 27 18 0 0
BITMAP
0E001000
3F803800
70C03000
40406000
C060C000
C061C000
C0638000
C0673F00
60467F80
70CCC0C0
3F99C060
0F398060
00718060
00E18060
00C1C0E0
0180E0C0
03007F80
01003F00
ENDCHAR

STARTCHAR char38
ENCODING 38
SWIDTH 9 0
DWIDTH 23 0
BBX 19 18 1 0
BITMAP
07C000
1FF000
1C7000
381800
301800
301800
187040
0FE0C0
3FE1C0
70F3C0
E03B00
C01E00
C01E00
C01C00
E03F00
F077E0
3FE3E0
1F80E0
ENDCHAR

STARTCHAR char39
ENCODING 39
SWIDTH 17 0
DWIDTH 5 0
BBX 3 6 1 14
BITMAP
40
40
80
E0
E0
60
ENDCHAR

STARTCHAR char40
ENCODING 40
SWIDTH 28 0
DWIDTH 8 0
BBX 6 18 1 0
BITMAP
04
0C
18
30
70
60
E0
C0
C0
C0
C0
C0
60
60
30
38
1C
0C
ENDCHAR

STARTCHAR char41
ENCODING 41
SWIDTH 28 0
DWIDTH 8 0
BBX 6 18 0 0
BITMAP
40
60
30
18
18
1C
0C
0C
0C
0C
0C
0C
0C
18
18
30
60
40
ENDCHAR

STARTCHAR char42
ENCODING 42
SWIDTH 10 0
DWIDTH 13 0
BBX 12 11 0 7
BITMAP
0F00
0600
4640
6640
7FE0
9F10
0E00
1B00
79C0
1180
1100
ENDCHAR

STARTCHAR char43
ENCODING 43
SWIDTH 28 0
DWIDTH 18 0
BBX 14 14 1 0
BITMAP
0300
0300
0300
0300
0300
0300
FFFC
FFFC
0300
0300
0300
0300
0300
0300
ENDCHAR

STARTCHAR char44
ENCODING 44
SWIDTH 17 0
DWIDTH 5 0
BBX 3 6 1 -3
BITMAP
C0
E0
60
20
40
40
ENDCHAR

STARTCHAR char45
ENCODING 45
SWIDTH 28 0
DWIDTH 8 0
BBX 7 2 0 7
BITMAP
FE
FE
ENDCHAR

STARTCHAR char46
ENCODING 46
SWIDTH 17 0
DWIDTH 5 0
BBX 3 3 1 0
BITMAP
40
E0
40
ENDCHAR

STARTCHAR char47
ENCODING 47
SWIDTH 31 0
DWIDTH 19 0
BBX 16 18 0 0
BITMAP
0001
0003
0006
000C
0018
0038
0070
0060
00C0
0180
0300
0600
0C00
1C00
1800
3000
6000
4000
ENDCHAR

STARTCHAR char48
ENCODING 48
SWIDTH 2 0
DWIDTH 21 0
BBX 17 18 1 0
BITMAP
07E000
1FF800
3C1E00
780E00
700700
E00300
C00180
C00180
C00180
C00180
C00180
C00180
E00380
600300
700700
3C1E00
1FFC00
07F000
ENDCHAR

STARTCHAR char49
ENCODING 49
SWIDTH 2 0
DWIDTH 21 0
BBX 7 18 6 0
BITMAP
1E
1C
7C
FC
FC
9C
1C
1C
1C
0C
0C
0C
0C
0C
0C
0C
0C
1C
ENDCHAR

STARTCHAR char50
ENCODING 50
SWIDTH 2 0
DWIDTH 21 0
BBX 16 18 1 0
BITMAP
03F0
0FF8
1E1C
3C0E
7006
3006
1006
000C
003C
00F0
03C0
0F80
1E00
3800
7800
7001
7FFF
FFFF
ENDCHAR

STARTCHAR char51
ENCODING 51
SWIDTH 2 0
DWIDTH 21 0
BBX 17 18 1 0
BITMAP
03E000
0FF800
3E3C00
780E00
300600
100600
000600
021C00
03F800
03FC00
020F00
000300
000380
400300
700700
FC0E00
3FF800
07E000
ENDCHAR

STARTCHAR char52
ENCODING 52
SWIDTH 2 0
DWIDTH 21 0
BBX 17 18 1 0
BITMAP
003400
003800
007800
00F800
01D800
039800
031800
071800
0E1800
1C1800
381800
701800
701F80
FFFF80
FFFF80
001800
001800
003E00
ENDCHAR

STARTCHAR char53
ENCODING 53
SWIDTH 2 0
DWIDTH 21 0
BBX 16 18 1 0
BITMAP
3FFE
3FFE
3001
3001
3000
3000
31F0
77FC
3C1E
1007
1003
0003
2003
2003
7006
FC1E
1FFC
07F0
ENDCHAR

STARTCHAR char54
ENCODING 54
SWIDTH 2 0
DWIDTH 21 0
BBX 16 18 2 0
BITMAP
03E0
0FFC
1E3E
3806
7002
6000
C000
C3E0
CFF8
F81C
F00E
E006
E006
6006
700C
3C1C
1FF8
07E0
ENDCHAR

STARTCHAR char55
ENCODING 55
SWIDTH 2 0
DWIDTH 21 0
BBX 16 18 1 0
BITMAP
FFFF
FFFF
FC07
000E
000E
001C
001C
0038
0070
0070
00E0
00E0
01C0
03C0
0380
0700
0F00
1F00
ENDCHAR

STARTCHAR char56
ENCODING 56
SWIDTH 2 0
DWIDTH 21 0
BBX 16 18 1 0
BITMAP
0FF0
3FFC
3C0E
7006
6006
6006
3006
1FFE
1FFC
3C3E
7006
E003
E003
E003
7007
7C0E
1FFE
07F0
ENDCHAR

STARTCHAR char57
ENCODING 57
SWIDTH 2 0
DWIDTH 21 0
BBX 16 18 1 0
BITMAP
07E0
1FF8
3C3C
380C
7006
6002
6003
6007
700F
3C39
1FF1
07E3
0002
2006
600C
783C
3FF0
0FE0
ENDCHAR

STARTCHAR char58
ENCODING 58
SWIDTH 21 0
DWIDTH 6 0
BBX 3 12 2 0
BITMAP
E0
E0
C0
00
00
00
00
00
00
E0
E0
40
ENDCHAR

STARTCHAR char59
ENCODING 59
SWIDTH 21 0
DWIDTH 6 0
BBX 3 15 2 -3
BITMAP
C0
E0
C0
00
00
00
00
00
00
E0
E0
E0
20
20
40
ENDCHAR

STARTCHAR char60
ENCODING 60
SWIDTH 21 0
DWIDTH 16 0
BBX 13 13 1 0
BITMAP
0008
0038
00E0
0780
1E00
7800
E000
F000
3C00
0700
01E0
0078
0018
ENDCHAR

STARTCHAR char61
ENCODING 61
SWIDTH 28 0
DWIDTH 18 0
BBX 16 6 0 4
BITMAP
FFFF
FFFF
0000
0000
FFFF
FFFF
ENDCHAR

STARTCHAR char62
ENCODING 62
SWIDTH 21 0
DWIDTH 16 0
BBX 13 13 1 0
BITMAP
8000
E000
3800
0F00
03C0
00F0
0038
0078
01E0
0700
3C00
F000
C000
ENDCHAR

STARTCHAR char63
ENCODING 63
SWIDTH 13 0
DWIDTH 14 0
BBX 11 18 1 0
BITMAP
0F00
3FC0
F9E0
60E0
2060
00E0
01C0
0180
0380
0300
0600
0600
0E00
0000
0000
0400
0F00
0E00
ENDCHAR

STARTCHAR char64
ENCODING 64
SWIDTH 24 0
DWIDTH 27 0
BBX 18 19 4 0
BITMAP
01F000
07F800
1C0E00
300700
600180
63ED80
C7FCC0
CE1CC0
CC18C0
DC18C0
D818C0
D83180
D83100
DC7300
4FFE00
679980
300300
1FFC00
07F000
ENDCHAR

STARTCHAR char65
ENCODING 65
SWIDTH 2 0
DWIDTH 21 0
BBX 19 18 0 0
BITMAP
01F000
01E000
01F000
01F000
03B800
033800
071C00
061C00
0E0E00
0E0E00
1C0600
1FFF00
1FFF00
380380
300380
7001C0
6001C0
F001E0
ENDCHAR

STARTCHAR char66
ENCODING 66
SWIDTH 2 0
DWIDTH 21 0
BBX 16 18 2 0
BITMAP
FFF0
FFFC
C00E
C006
C007
C007
C006
C00E
FFFC
FFFC
C00E
C007
C003
C003
C007
C00E
FFFE
FFF8
ENDCHAR

STARTCHAR char67
ENCODING 67
SWIDTH 9 0
DWIDTH 23 0
BBX 20 18 1 0
BITMAP
01FC00
0FFF80
1F0FE0
3C01C0
700080
600000
E00000
C00000
C00000
C00000
C00000
C00000
E00040
700040
7800E0
3E07C0
0FFF80
03FC00
ENDCHAR

STARTCHAR char68
ENCODING 68
SWIDTH 9 0
DWIDTH 23 0
BBX 18 18 1 0
BITMAP
7FF800
7FFE00
600F00
600380
600180
600180
6000C0
6000C0
6000C0
6000C0
6000C0
6000C0
600180
600180
600300
600F00
7FFE00
7FF800
ENDCHAR

STARTCHAR char69
ENCODING 69
SWIDTH 35 0
DWIDTH 20 0
BBX 16 18 2 0
BITMAP
FFFE
FFFE
C001
C000
C000
C000
C000
C010
FFE0
FFE0
C010
C000
C000
C000
C000
C001
FFFE
FFFE
ENDCHAR

STARTCHAR char70
ENCODING 70
SWIDTH 35 0
DWIDTH 20 0
BBX 17 18 1 0
BITMAP
7FFF80
7FFF00
600080
600000
600000
600000
600000
600800
7FF000
7FF000
600800
600000
600000
600000
600000
600000
600000
F00000
ENDCHAR

STARTCHAR char71
ENCODING 71
SWIDTH 9 0
DWIDTH 23 0
BBX 19 18 1 0
BITMAP
03FC00
0FFF00
1E0FC0
380180
700080
600000
E00000
C00000
C06000
C07FC0
C07FC0
C060C0
E000C0
7000C0
7800C0
3C07E0
1FFF80
03FC00
ENDCHAR

STARTCHAR char72
ENCODING 72
SWIDTH 9 0
DWIDTH 23 0
BBX 18 18 1 0
BITMAP
F003C0
600180
600180
600180
600180
600180
600180
600180
7FFF80
7FFF80
600180
600180
600180
600180
600180
600180
600180
F003C0
ENDCHAR

STARTCHAR char73
ENCODING 73
SWIDTH 25 0
DWIDTH 7 0
BBX 5 18 1 0
BITMAP
78
60
60
60
60
60
60
60
60
60
60
60
60
60
60
60
60
F8
ENDCHAR

STARTCHAR char74
ENCODING 74
SWIDTH 24 0
DWIDTH 17 0
BBX 14 18 0 0
BITMAP
003C
0018
0018
0018
0018
0018
0018
0018
0018
0018
0018
0018
0018
0018
4038
F070
FFE0
1FC0
ENDCHAR

STARTCHAR char75
ENCODING 75
SWIDTH 35 0
DWIDTH 20 0
BBX 18 18 1 0
BITMAP
F00F80
600F00
601C00
603800
607000
61E000
63C000
778000
7FC000
7DE000
78E000
607000
603800
601C00
601E00
600F00
600700
F007C0
ENDCHAR

STARTCHAR char76
ENCODING 76
SWIDTH 35 0
DWIDTH 20 0
BBX 17 18 1 0
BITMAP
F00000
600000
600000
600000
600000
600000
600000
600000
600000
600000
600000
600000
600000
600000
600000
600080
7FFF00
7FFF00
ENDCHAR

STARTCHAR char77
ENCODING 77
SWIDTH 16 0
DWIDTH 25 0
BBX 21 18 1 0
BITMAP
F800F8
7800F0
7800F0
7C01B0
6C01B0
6E0330
660730
670630
670E30
638C30
639C30
61D830
61F830
60F030
60F030
606030
606070
F02078
ENDCHAR

STARTCHAR char78
ENCODING 78
SWIDTH 9 0
DWIDTH 23 0
BBX 19 18 1 0
BITMAP
F801E0
7800C0
7C00C0
7E00C0
6F00C0
6780C0
6380C0
61C0C0
61E0C0
60F0C0
6078C0
603CC0
601EC0
600FC0
6007C0
6003C0
6003C0
F001E0
ENDCHAR

STARTCHAR char79
ENCODING 79
SWIDTH 16 0
DWIDTH 25 0
BBX 20 18 1 0
BITMAP
03F800
0FFF00
1E0780
3801C0
7000E0
600060
E00070
C00030
C00030
C00030
C00030
C00070
E00070
7000E0
7801E0
3E07C0
0FFF00
03FC00
ENDCHAR

STARTCHAR char80
ENCODING 80
SWIDTH 35 0
DWIDTH 20 0
BBX 16 18 1 0
BITMAP
7FF8
7FFE
600E
6007
6003
6003
6003
6007
7FFE
7FF8
6000
6000
6000
6000
6000
6000
6000
F000
ENDCHAR

STARTCHAR char81
ENCODING 81
SWIDTH 9 0
DWIDTH 23 0
BBX 19 20 1 -2
BITMAP
03F800
0FFE00
1E0F00
380780
7003C0
6001C0
E000E0
C00060
C00060
C00060
C00060
E000E0
6001C0
70C1C0
3BF380
1C3F00
0FFE00
03FF00
0003C0
000080
ENDCHAR

STARTCHAR char82
ENCODING 82
SWIDTH 2 0
DWIDTH 21 0
BBX 18 18 1 0
BITMAP
7FF800
7FFF00
600F00
600380
600180
600180
600180
600780
7FFF00
7FFC00
603000
603800
601C00
601C00
600E00
600700
600700
F007C0
ENDCHAR

STARTCHAR char83
ENCODING 83
SWIDTH 2 0
DWIDTH 21 0
BBX 19 18 0 0
BITMAP
03FC00
1FFFA0
3E07C0
380180
600080
600000
700000
3F0000
1FFE00
03FF80
0003C0
0000C0
0000C0
2000C0
600380
7C0F80
1FFE00
03F800
ENDCHAR

STARTCHAR char84
ENCODING 84
SWIDTH 35 0
DWIDTH 20 0
BBX 18 18 0 0
BITMAP
FFFF80
FFFF80
80C040
00C000
00C000
00C000
00C000
00C000
00C000
00C000
00C000
00C000
00C000
00C000
00C000
00C000
00C000
01E000
ENDCHAR

STARTCHAR char85
ENCODING 85
SWIDTH 6 0
DWIDTH 22 0
BBX 18 18 1 0
BITMAP
F003C0
600180
600180
600180
600180
600180
600180
600180
600180
600180
600180
600180
600180
600180
700380
380F00
1FFE00
07F800
ENDCHAR

STARTCHAR char86
ENCODING 86
SWIDTH 2 0
DWIDTH 21 0
BBX 19 18 0 0
BITMAP
F001C0
7001C0
700180
700380
380300
380700
1C0600
1C0E00
0E0E00
0E0C00
061C00
071800
073800
03B000
03F000
01E000
01E000
01E000
ENDCHAR

STARTCHAR char87
ENCODING 87
SWIDTH 34 0
DWIDTH 30 0
BBX 28 18 -1 0
BITMAP
F80F00F0
700F00E0
380F00C0
380F80C0
381F81C0
1C198180
1C19C180
1C19C380
0C39C300
0E30C300
0E30E700
0670E600
07606600
07607E00
03E07E00
03C03C00
03C03C00
03C03C00
ENDCHAR

STARTCHAR char88
ENCODING 88
SWIDTH 31 0
DWIDTH 19 0
BBX 17 18 0 0
BITMAP
F80F00
700E00
380E00
1C1C00
1E3800
0E3000
077000
03E000
03C000
03C000
03E000
077000
0E7000
1C3800
381C00
381E00
700E00
F00F80
ENDCHAR

STARTCHAR char89
ENCODING 89
SWIDTH 31 0
DWIDTH 19 0
BBX 17 18 0 0
BITMAP
F00780
700700
780600
380E00
1C1C00
0E1800
0E3000
076000
03E000
03C000
018000
018000
018000
018000
018000
018000
018000
03C000
ENDCHAR

STARTCHAR char90
ENCODING 90
SWIDTH 35 0
DWIDTH 20 0
BBX 18 18 0 0
BITMAP
FFFF80
FFFF00
800E00
001E00
001C00
003800
007000
00F000
00E000
01C000
038000
078000
070000
0E0000
1C0000
380080
7FFF80
7FFFC0
ENDCHAR

STARTCHAR char91
ENCODING 91
SWIDTH 32 0
DWIDTH 9 0
BBX 7 19 1 -1
BITMAP
7C
7C
62
60
60
60
60
60
60
60
60
60
60
60
60
62
7E
FE
02
ENDCHAR

STARTCHAR char92
ENCODING 92
SWIDTH 25 0
DWIDTH 7 0
BBX 7 18 0 0
BITMAP
C0
C0
40
60
60
20
30
30
10
18
18
08
0C
0C
04
06
06
02
ENDCHAR

STARTCHAR char93
ENCODING 93
SWIDTH 32 0
DWIDTH 9 0
BBX 6 19 1 -1
BITMAP
FC
F8
98
18
18
18
18
18
18
18
18
18
18
18
18
98
F8
FC
80
ENDCHAR

STARTCHAR char94
ENCODING 94
SWIDTH 0 0
DWIDTH 0 0
BBX 8 4 -4 19
BITMAP
18
3C
26
47
ENDCHAR

STARTCHAR char95
ENCODING 95
SWIDTH 17 0
DWIDTH 15 0
BBX 14 2 0 -3
BITMAP
FFFC
FFFC
ENDCHAR

STARTCHAR char96
ENCODING 96
SWIDTH 0 0
DWIDTH 0 0
BBX 4 4 -3 15
BITMAP
E0
60
20
30
ENDCHAR

STARTCHAR char97
ENCODING 97
SWIDTH 28 0
DWIDTH 18 0
BBX 16 15 0 0
BITMAP
03C0
0380
07C0
06C0
0EE0
0C60
0C70
1830
1838
3FF8
3FF8
701C
600C
E00E
E00F
ENDCHAR

STARTCHAR char98
ENCODING 98
SWIDTH 28 0
DWIDTH 18 0
BBX 15 15 1 0
BITMAP
7FF0
7FFC
601C
600E
600E
600C
7FF8
7FF8
601C
6006
6006
6006
600E
7FFC
FFF0
ENDCHAR

STARTCHAR char99
ENCODING 99
SWIDTH 31 0
DWIDTH 19 0
BBX 16 15 1 0
BITMAP
07F0
1FFD
3C0E
7002
6000
C000
C000
C000
C000
C000
E002
6002
780F
3FFC
0FF0
ENDCHAR

STARTCHAR char100
ENCODING 100
SWIDTH 31 0
DWIDTH 19 0
BBX 15 15 1 0
BITMAP
7FE0
7FF8
603C
600C
600E
6006
6006
6006
6006
6006
6006
600C
601C
7FF8
7FE0
ENDCHAR

STARTCHAR char101
ENCODING 101
SWIDTH 28 0
DWIDTH 18 0
BBX 14 15 1 0
BITMAP
7FFC
7FFC
6004
6000
6000
6000
7FE0
7FE0
6020
6000
6000
6000
6000
7FFC
7FFC
ENDCHAR

STARTCHAR char102
ENCODING 102
SWIDTH 21 0
DWIDTH 16 0
BBX 14 15 1 0
BITMAP
FFFC
7FFC
6004
6000
6000
6000
7FC0
7FC0
6020
6000
6000
6000
6000
6000
F000
ENDCHAR

STARTCHAR char103
ENCODING 103
SWIDTH 35 0
DWIDTH 20 0
BBX 17 15 1 0
BITMAP
07F000
1FFD00
381E00
700400
E00000
C00000
C00000
C0FE00
C0FE00
C08600
E00600
600600
380F80
1FFE00
07F000
ENDCHAR

STARTCHAR char104
ENCODING 104
SWIDTH 31 0
DWIDTH 19 0
BBX 15 15 1 0
BITMAP
F00E
600C
600C
600C
600C
600C
7FFC
7FFC
600C
600C
600C
600C
600C
600C
F00E
ENDCHAR

STARTCHAR char105
ENCODING 105
SWIDTH 25 0
DWIDTH 7 0
BBX 4 15 1 0
BITMAP
70
60
60
60
60
60
60
60
60
60
60
60
60
60
F0
ENDCHAR

STARTCHAR char106
ENCODING 106
SWIDTH 17 0
DWIDTH 15 0
BBX 12 15 0 0
BITMAP
0070
0060
0060
0060
0060
0060
0060
0060
0060
0060
0060
2060
6060
FFC0
1F00
ENDCHAR

STARTCHAR char107
ENCODING 107
SWIDTH 28 0
DWIDTH 18 0
BBX 16 15 1 0
BITMAP
F03C
6038
6070
60E0
6380
6700
6F00
7F80
71C0
60C0
60E0
6070
6038
601C
F01F
ENDCHAR

STARTCHAR char108
ENCODING 108
SWIDTH 21 0
DWIDTH 16 0
BBX 14 15 1 0
BITMAP
F000
6000
6000
6000
6000
6000
6000
6000
6000
6000
6000
6000
6000
7FFC
FFFC
ENDCHAR

STARTCHAR char109
ENCODING 109
SWIDTH 2 0
DWIDTH 21 0
BBX 17 15 1 0
BITMAP
F80780
700700
780700
780F00
6C0B00
6C1B00
6E3B00
663300
673300
636300
636300
61C300
61C300
608300
E08380
ENDCHAR

STARTCHAR char110
ENCODING 110
SWIDTH 35 0
DWIDTH 20 0
BBX 16 15 1 0
BITMAP
F00E
7006
7806
7C06
6E06
6706
6386
61C6
60C6
60E6
6076
603E
601E
600E
E00E
ENDCHAR

STARTCHAR char111
ENCODING 111
SWIDTH 2 0
DWIDTH 21 0
BBX 17 15 1 0
BITMAP
07E000
1FF800
381E00
700700
600300
C00380
C00180
C00180
C00180
C00180
E00300
600700
380E00
1FFC00
07F000
ENDCHAR

STARTCHAR char112
ENCODING 112
SWIDTH 28 0
DWIDTH 18 0
BBX 14 15 1 0
BITMAP
FFF0
7FF8
601C
600C
600C
600C
603C
7FF8
7FF0
6000
6000
6000
6000
6000
E000
ENDCHAR

STARTCHAR char113
ENCODING 113
SWIDTH 35 0
DWIDTH 20 0
BBX 16 17 1 -2
BITMAP
07E0
1FF8
383C
700E
E006
C007
C003
C003
C003
C003
E006
638E
38FC
1FF8
07FC
000E
0004
ENDCHAR

STARTCHAR char114
ENCODING 114
SWIDTH 28 0
DWIDTH 18 0
BBX 15 15 1 0
BITMAP
FFE0
7FF8
601C
600C
600C
600C
601C
7FF8
7FF0
60E0
6060
6030
6038
6018
E01E
ENDCHAR

STARTCHAR char115
ENCODING 115
SWIDTH 28 0
DWIDTH 18 0
BBX 16 15 0 0
BITMAP
0FF0
3FFD
781E
6004
6000
7000
7FC0
1FFC
007C
000E
4006
400E
701C
3FF8
0FE0
ENDCHAR

STARTCHAR char116
ENCODING 116
SWIDTH 21 0
DWIDTH 16 0
BBX 16 15 -1 0
BITMAP
FFFE
FFFE
C181
0180
0180
0180
0180
0180
0180
0180
0180
0180
0180
0180
03C0
ENDCHAR

STARTCHAR char117
ENCODING 117
SWIDTH 35 0
DWIDTH 20 0
BBX 16 15 1 0
BITMAP
E00F
6006
6006
6006
6006
6006
6006
6006
6006
6006
6006
6006
701C
3FFC
0FF0
ENDCHAR

STARTCHAR char118
ENCODING 118
SWIDTH 28 0
DWIDTH 18 0
BBX 16 15 0 0
BITMAP
E00F
600E
700C
300C
3018
1818
1830
0C30
0C70
0E60
0660
06C0
03C0
0380
03C0
ENDCHAR

STARTCHAR char119
ENCODING 119
SWIDTH 16 0
DWIDTH 25 0
BBX 23 15 -1 0
BITMAP
703C0E
703C0C
303C0C
303C0C
386E18
186618
186618
1C4630
0CC330
0CC330
0CC360
0783E0
0781E0
0781C0
0781E0
ENDCHAR

STARTCHAR char120
ENCODING 120
SWIDTH 21 0
DWIDTH 16 0
BBX 15 15 0 0
BITMAP
F03C
7038
3830
1860
1CC0
0FC0
0780
0300
0780
0FC0
1CC0
1860
3070
7038
F03E
ENDCHAR

STARTCHAR char121
ENCODING 121
SWIDTH 21 0
DWIDTH 16 0
BBX 15 15 0 0
BITMAP
F01E
7018
3038
3830
1C60
0CC0
0EC0
0780
0300
0300
0300
0300
0300
0300
0780
ENDCHAR

STARTCHAR char122
ENCODING 122
SWIDTH 21 0
DWIDTH 16 0
BBX 14 15 0 0
BITMAP
FFFC
FFF8
4038
0070
0060
00C0
01C0
0380
0700
0E00
1C00
3800
7800
7FFC
7FFC
ENDCHAR

STARTCHAR char123
ENCODING 123
SWIDTH 32 0
DWIDTH 9 0
BBX 6 23 1 -5
BITMAP
1C
3C
30
30
30
30
30
30
30
30
60
C0
60
30
30
30
30
30
30
30
30
3C
1C
ENDCHAR

STARTCHAR char124
ENCODING 124
SWIDTH 25 0
DWIDTH 7 0
BBX 2 18 2 0
BITMAP
C0
C0
C0
C0
C0
C0
C0
C0
C0
C0
C0
C0
C0
C0
C0
C0
C0
C0
ENDCHAR

STARTCHAR char125
ENCODING 125
SWIDTH 32 0
DWIDTH 9 0
BBX 6 23 1 -5
BITMAP
E0
F0
30
30
30
30
30
30
30
38
1C
0C
18
38
30
30
30
30
30
30
30
F0
E0
ENDCHAR

STARTCHAR char126
ENCODING 126
SWIDTH 0 0
DWIDTH 0 0
BBX 12 4 -6 19
BITMAP
0020
3820
7FE0
43C0
ENDCHAR

STARTCHAR char128
ENCODING 128
SWIDTH 9 0
DWIDTH 23 0
BBX 23 18 -1 0
BITMAP
001FC0
00FFF8
01E0FC
03801C
070008
0E0000
7FE000
0C7FE0
1C0000
7FE000
0CFFC0
0C0000
0E0004
0F0004
07800E
03E07C
01FFF0
003FC0
ENDCHAR

STARTCHAR char130
ENCODING 130
SWIDTH 17 0
DWIDTH 5 0
BBX 3 6 1 -3
BITMAP
C0
E0
60
20
40
40
ENDCHAR

STARTCHAR char131
ENCODING 131
SWIDTH 0 0
DWIDTH 0 0
BBX 8 4 -4 19
BITMAP
18
3C
26
47
ENDCHAR

STARTCHAR char132
ENCODING 132
SWIDTH 32 0
DWIDTH 9 0
BBX 7 6 0 -3
BITMAP
EE
EE
EE
22
22
44
ENDCHAR

STARTCHAR char133
ENCODING 133
SWIDTH 24 0
DWIDTH 27 0
BBX 19 2 3 0
BITMAP
C0C060
C0C060
ENDCHAR

STARTCHAR char134
ENCODING 134
SWIDTH 17 0
DWIDTH 15 0
BBX 14 23 0 -5
BITMAP
0700
0600
0600
0600
0600
8204
FFF8
FFF8
0200
0200
0200
0600
0600
0600
0700
0700
0700
0700
0700
0700
0700
0700
0780
ENDCHAR

STARTCHAR char136
ENCODING 136
SWIDTH 0 0
DWIDTH 0 0
BBX 9 5 -4 14
BITMAP
1C00
2C00
6600
C700
C780
ENDCHAR

STARTCHAR char138
ENCODING 138
SWIDTH 16 0
DWIDTH 25 0
BBX 0 0 0 0
BITMAP
ENDCHAR

STARTCHAR char139
ENCODING 139
SWIDTH 32 0
DWIDTH 9 0
BBX 4 8 2 3
BITMAP
10
30
70
C0
C0
60
30
10
ENDCHAR

STARTCHAR char140
ENCODING 140
SWIDTH 2 0
DWIDTH 31 0
BBX 26 18 1 0
BITMAP
03FFFFC0
0FFFFFC0
1E0FFFC0
78060000
70060000
E0060000
E0060000
C0060400
C007F800
C007F800
C0060400
C0060000
E0060000
70060000
78070000
3C0700C0
1FFFFFC0
07FFFFC0
ENDCHAR

STARTCHAR char141
ENCODING 141
SWIDTH 16 0
DWIDTH 25 0
BBX 0 0 0 0
BITMAP
ENDCHAR

STARTCHAR char145
ENCODING 145
SWIDTH 17 0
DWIDTH 5 0
BBX 3 6 1 14
BITMAP
40
40
80
E0
E0
40
ENDCHAR

STARTCHAR char146
ENCODING 146
SWIDTH 17 0
DWIDTH 5 0
BBX 3 6 1 12
BITMAP
E0
E0
E0
20
20
20
ENDCHAR

STARTCHAR char147
ENCODING 147
SWIDTH 32 0
DWIDTH 9 0
BBX 7 6 0 12
BITMAP
44
44
88
CE
EE
E6
ENDCHAR

STARTCHAR char148
ENCODING 148
SWIDTH 32 0
DWIDTH 9 0
BBX 7 6 0 12
BITMAP
EE
EE
E6
22
22
22
ENDCHAR

STARTCHAR char149
ENCODING 149
SWIDTH 32 0
DWIDTH 9 0
BBX 7 6 1 6
BITMAP
38
7C
FE
FE
FE
38
ENDCHAR

STARTCHAR char150
ENCODING 150
SWIDTH 2 0
DWIDTH 21 0
BBX 18 2 0 7
BITMAP
FFFFC0
FFFFC0
ENDCHAR

STARTCHAR char151
ENCODING 151
SWIDTH 28 0
DWIDTH 18 0
BBX 16 2 0 6
BITMAP
FFFF
FFFF
ENDCHAR

STARTCHAR char152
ENCODING 152
SWIDTH 0 0
DWIDTH 0 0
BBX 10 3 -5 16
BITMAP
7880
FF80
C700
ENDCHAR

STARTCHAR char153
ENCODING 153
SWIDTH 13 0
DWIDTH 24 0
BBX 20 9 0 7
BITMAP
FFE030
99B050
183070
1838B0
1828B0
182D30
182730
182630
3C6270
ENDCHAR

STARTCHAR char155
ENCODING 155
SWIDTH 32 0
DWIDTH 9 0
BBX 4 8 2 3
BITMAP
80
C0
70
30
30
70
C0
80
ENDCHAR

STARTCHAR char156
ENCODING 156
SWIDTH 16 0
DWIDTH 25 0
BBX 21 15 1 0
BITMAP
07FFF0
1FFFF0
386008
706000
E06000
C06000
C07F80
C07F80
C06040
C06000
E06000
606000
786000
1FFFF8
07FFF8
ENDCHAR

STARTCHAR char157
ENCODING 157
SWIDTH 16 0
DWIDTH 25 0
BBX 0 0 0 0
BITMAP
ENDCHAR

STARTCHAR char159
ENCODING 159
SWIDTH 31 0
DWIDTH 19 0
BBX 17 22 0 0
BITMAP
0C3000
1C3000
083000
000000
F00780
600700
700600
380E00
1C1C00
0E1800
0E3000
076000
03E000
03C000
018000
018000
018000
018000
018000
018000
018000
018000
ENDCHAR

STARTCHAR char160
ENCODING 160
SWIDTH 6 0
DWIDTH 12 0
BBX 0 0 0 0
BITMAP
ENDCHAR

STARTCHAR char161
ENCODING 161
SWIDTH 21 0
DWIDTH 6 0
BBX 4 18 0 0
BITMAP
60
70
20
00
00
20
20
20
20
20
60
60
60
60
60
70
70
F0
ENDCHAR

STARTCHAR char162
ENCODING 162
SWIDTH 31 0
DWIDTH 19 0
BBX 16 19 1 -2
BITMAP
0180
0180
07F0
1FFC
398E
7182
6180
C180
C180
C180
C180
C180
E182
6182
798F
3FFC
0FF0
0180
0180
ENDCHAR

STARTCHAR char163
ENCODING 163
SWIDTH 2 0
DWIDTH 21 0
BBX 19 18 1 0
BITMAP
01FC00
07FF00
0F0FE0
1C01C0
380080
300000
300000
300000
FFF000
FFF000
B03000
300000
300000
300000
300000
B00080
FFFF00
FFFF00
ENDCHAR

STARTCHAR char164
ENCODING 164
SWIDTH 0 0
DWIDTH 0 0
BBX 5 5 -1 18
BITMAP
78
70
60
C0
C0
ENDCHAR

STARTCHAR char165
ENCODING 165
SWIDTH 0 0
DWIDTH 0 0
BBX 9 5 -5 18
BITMAP
F180
7100
3A00
1E00
1E00
ENDCHAR

STARTCHAR char166
ENCODING 166
SWIDTH 16 0
DWIDTH 25 0
BBX 0 0 0 0
BITMAP
ENDCHAR

STARTCHAR char167
ENCODING 167
SWIDTH 13 0
DWIDTH 14 0
BBX 13 23 0 -5
BITMAP
0F00
1FD8
39E0
3040
3040
3800
1C00
1F00
37C0
61E0
6070
6030
7030
3830
1E60
07E0
03C0
00C0
0060
6060
F0E0
7FC0
0780
ENDCHAR

STARTCHAR char168
ENCODING 168
SWIDTH 0 0
DWIDTH 0 0
BBX 8 3 -4 16
BITMAP
01
C3
C3
ENDCHAR

STARTCHAR char169
ENCODING 169
SWIDTH 2 0
DWIDTH 21 0
BBX 17 17 1 0
BITMAP
03E000
07F000
181C00
300600
21F200
423100
C41180
CC1180
CC0180
CC0180
CC0180
CC0180
47F100
63C300
300600
1FFC00
07F000
ENDCHAR

STARTCHAR char170
ENCODING 170
SWIDTH 0 0
DWIDTH 0 0
BBX 8 3 -4 19
BITMAP
C3
C3
C3
ENDCHAR

STARTCHAR char171
ENCODING 171
SWIDTH 6 0
DWIDTH 12 0
BBX 8 10 2 2
BITMAP
36
66
6C
CC
D8
CC
6C
66
36
33
ENDCHAR

STARTCHAR char172
ENCODING 172
SWIDTH 31 0
DWIDTH 19 0
BBX 17 7 0 0
BITMAP
FFFF80
000180
000180
000180
000180
000180
000180
ENDCHAR

STARTCHAR char174
ENCODING 174
SWIDTH 2 0
DWIDTH 21 0
BBX 17 17 1 0
BITMAP
03E000
07F000
0C1800
300400
27E200
463100
463100
C63180
C7C180
C6C180
C66180
C67180
463100
673B00
200600
1FFC00
07F000
ENDCHAR

STARTCHAR char176
ENCODING 176
SWIDTH 6 0
DWIDTH 12 0
BBX 8 8 -1 9
BITMAP
18
3E
42
C3
C3
43
7E
1C
ENDCHAR

STARTCHAR char177
ENCODING 177
SWIDTH 17 0
DWIDTH 15 0
BBX 13 15 0 0
BITMAP
0300
0300
0300
0300
0300
FFF8
FFF8
0300
0300
0300
0300
0300
0000
FFF8
FFF8
ENDCHAR

STARTCHAR char179
ENCODING 179
SWIDTH 16 0
DWIDTH 25 0
BBX 0 0 0 0
BITMAP
ENDCHAR

STARTCHAR char180
ENCODING 180
SWIDTH 0 0
DWIDTH 0 0
BBX 4 4 -1 15
BITMAP
70
60
40
C0
ENDCHAR

STARTCHAR char182
ENCODING 182
SWIDTH 28 0
DWIDTH 18 0
BBX 11 22 2 -4
BITMAP
1FE0
7FE0
7860
F860
F860
F860
F860
F860
7860
3860
0860
0860
0860
0860
0860
0860
0860
0860
0860
0860
0860
0860
ENDCHAR

STARTCHAR char183
ENCODING 183
SWIDTH 17 0
DWIDTH 5 0
BBX 3 3 1 6
BITMAP
E0
E0
E0
ENDCHAR

STARTCHAR char184
ENCODING 184
SWIDTH 0 0
DWIDTH 0 0
BBX 6 5 -3 -5
BITMAP
38
3C
0C
FC
38
ENDCHAR

STARTCHAR char185
ENCODING 185
SWIDTH 16 0
DWIDTH 25 0
BBX 0 0 0 0
BITMAP
ENDCHAR

STARTCHAR char186
ENCODING 186
SWIDTH 0 0
DWIDTH 0 0
BBX 12 4 -6 19
BITMAP
0020
3820
7FE0
43C0
ENDCHAR

STARTCHAR char187
ENCODING 187
SWIDTH 6 0
DWIDTH 12 0
BBX 8 11 1 2
BITMAP
CC
4C
64
26
36
13
33
36
66
6C
CC
ENDCHAR

STARTCHAR char189
ENCODING 189
SWIDTH 16 0
DWIDTH 25 0
BBX 0 0 0 0
BITMAP
ENDCHAR

STARTCHAR char191
ENCODING 191
SWIDTH 13 0
DWIDTH 14 0
BBX 10 18 1 0
BITMAP
0C00
1C00
1800
0000
0000
0000
0800
0800
1800
1000
3000
6000
E000
C080
C080
E3C0
7F80
3E00
ENDCHAR

STARTCHAR char192
ENCODING 192
SWIDTH 2 0
DWIDTH 21 0
BBX 19 23 0 0
BITMAP
078000
038000
018000
00C000
00C000
01F000
01E000
01F000
01F000
03B800
033800
071C00
061C00
0E0E00
0E0E00
1C0600
1FFF00
1FFF00
380380
300380
7001C0
6001C0
F001E0
ENDCHAR

STARTCHAR char193
ENCODING 193
SWIDTH 2 0
DWIDTH 21 0
BBX 19 23 0 0
BITMAP
007800
007000
006000
00C000
00C000
01F000
01E000
01F000
01F000
03B800
033800
071C00
061C00
0E0E00
0E0E00
1C0600
1FFF00
1FFF00
380380
300380
7001C0
6001C0
F001E0
ENDCHAR

STARTCHAR char194
ENCODING 194
SWIDTH 2 0
DWIDTH 21 0
BBX 19 23 0 0
BITMAP
00C000
01E000
013000
023800
000000
01F000
01E000
01F000
01F000
03B800
033800
071C00
061C00
0E0E00
0E0E00
1C0600
1FFF00
1FFF00
380380
300380
7001C0
6001C0
F001E0
ENDCHAR

STARTCHAR char195
ENCODING 195
SWIDTH 2 0
DWIDTH 21 0
BBX 19 23 0 0
BITMAP
000400
078400
0FFC00
087800
000000
01F000
01E000
01F000
01F000
03B800
033800
071C00
061C00
0E0E00
0E0E00
1C0600
1FFF00
1FFF00
380380
300380
7001C0
6001C0
F001E0
ENDCHAR

STARTCHAR char196
ENCODING 196
SWIDTH 2 0
DWIDTH 21 0
BBX 19 19 0 0
BITMAP
180300
19F300
19F300
01F000
01B000
03B000
033800
071800
061800
0E0C00
0E0C00
1C0600
1FFE00
1FFF00
300300
300380
600180
6001C0
E001E0
ENDCHAR

STARTCHAR char197
ENCODING 197
SWIDTH 2 0
DWIDTH 21 0
BBX 19 23 0 0
BITMAP
007000
03F800
031800
03F800
01F000
03F800
01F000
01F000
03F800
03B800
033800
071C00
061C00
0E0C00
0E0E00
1C0E00
1FFF00
1FFF00
380380
300380
7001C0
E001C0
E001E0
ENDCHAR

STARTCHAR char198
ENCODING 198
SWIDTH 34 0
DWIDTH 30 0
BBX 27 18 -1 0
BITMAP
007FFFC0
007FFFE0
007FFFC0
00E60000
00C60000
01C60000
01860000
03860200
0307FC00
0707FC00
0E060200
0FFE0000
1FFE0000
180E0000
380E0000
300F0020
700FFFE0
600FFFE0
ENDCHAR

STARTCHAR char199
ENCODING 199
SWIDTH 9 0
DWIDTH 23 0
BBX 20 22 1 -4
BITMAP
01FC00
07FF80
1F0FE0
3C01C0
700080
600000
E00000
C00000
C00000
C00000
C00000
C00000
600040
700040
3800E0
1E03C0
0FFF80
01FC00
00E000
017000
003000
03E000
ENDCHAR

STARTCHAR char200
ENCODING 200
SWIDTH 35 0
DWIDTH 20 0
BBX 16 23 2 0
BITMAP
1E00
0E00
0600
0600
0300
FFFE
FFFE
C001
C000
C000
C000
C000
C010
FFE0
FFE0
C010
C000
C000
C000
C000
C001
FFFE
FFFE
ENDCHAR

STARTCHAR char201
ENCODING 201
SWIDTH 35 0
DWIDTH 20 0
BBX 16 23 2 0
BITMAP
01E0
0180
0380
0300
0700
FFFE
FFFE
C001
C000
C000
C000
C000
C010
FFE0
FFE0
C010
C000
C000
C000
C000
C001
FFFE
FFFE
ENDCHAR

STARTCHAR char202
ENCODING 202
SWIDTH 35 0
DWIDTH 20 0
BBX 16 23 2 0
BITMAP
0700
0700
0D80
18C0
0000
FFFE
FFFE
C001
C000
C000
C000
C000
C010
FFE0
FFE0
C010
C000
C000
C000
C000
C001
FFFE
FFFE
ENDCHAR

STARTCHAR char203
ENCODING 203
SWIDTH 35 0
DWIDTH 20 0
BBX 16 22 2 0
BITMAP
1820
3860
1860
0000
FFFE
FFFE
C001
C000
C000
C000
C000
C010
FFE0
FFE0
C010
C000
C000
C000
C000
C001
FFFE
FFFE
ENDCHAR

STARTCHAR char204
ENCODING 204
SWIDTH 25 0
DWIDTH 7 0
BBX 7 23 -1 0
BITMAP
F0
70
30
18
0C
1E
0C
0C
0C
0C
0C
0C
0C
0C
0C
0C
0C
0C
0C
0C
0C
0C
3E
ENDCHAR

STARTCHAR char205
ENCODING 205
SWIDTH 25 0
DWIDTH 7 0
BBX 6 23 1 0
BITMAP
1C
18
10
30
60
78
30
30
30
30
30
30
30
30
30
30
30
30
30
30
30
30
F8
ENDCHAR

STARTCHAR char206
ENCODING 206
SWIDTH 25 0
DWIDTH 7 0
BBX 8 23 -2 0
BITMAP
18
1C
26
43
00
1E
0C
0C
0C
0C
0C
0C
0C
0C
0C
0C
0C
0C
0C
0C
0C
0C
3E
ENDCHAR

STARTCHAR char207
ENCODING 207
SWIDTH 25 0
DWIDTH 7 0
BBX 9 22 -1 0
BITMAP
C300
C380
C300
0000
1C00
1800
1800
1800
1800
1800
1800
1800
1800
1800
1800
1800
1800
1800
1800
1800
1800
1C00
ENDCHAR

STARTCHAR char209
ENCODING 209
SWIDTH 9 0
DWIDTH 23 0
BBX 19 23 1 0
BITMAP
000800
070400
0FFC00
087800
000000
F801E0
7800C0
7C00C0
7E00C0
6F00C0
6780C0
6380C0
61C0C0
61E0C0
60F0C0
6078C0
603CC0
601EC0
600FC0
6007C0
6003C0
6003C0
F001E0
ENDCHAR

STARTCHAR char210
ENCODING 210
SWIDTH 16 0
DWIDTH 25 0
BBX 20 23 1 0
BITMAP
03C000
01C000
00C000
00C000
006000
03F800
0FFF00
1E0780
3801C0
7000E0
600060
E00070
C00030
C00030
C00030
C00030
C00070
E00070
7000E0
7801E0
3E07C0
0FFF00
03FC00
ENDCHAR

STARTCHAR char211
ENCODING 211
SWIDTH 16 0
DWIDTH 25 0
BBX 20 23 1 0
BITMAP
003800
003000
007000
006000
00E000
01F800
0FFF00
1E0780
3803C0
7000E0
600060
E00070
C00030
C00030
C00030
C00030
C00070
E00070
7000E0
7801E0
3E07C0
1FFF00
03FC00
ENDCHAR

STARTCHAR char212
ENCODING 212
SWIDTH 16 0
DWIDTH 25 0
BBX 20 23 1 0
BITMAP
00E000
00E000
01B000
031800
000000
01F800
0FFF00
1E0780
3803C0
7000E0
600060
E00070
C00030
C00030
C00030
C00030
C00070
E00070
7000E0
7801E0
3E07C0
1FFF00
03FC00
ENDCHAR

STARTCHAR char213
ENCODING 213
SWIDTH 16 0
DWIDTH 25 0
BBX 20 23 1 0
BITMAP
000400
038600
0FFE00
083800
000000
03F800
0FFF00
1E0780
3801C0
7000E0
600060
E00070
C00030
C00030
C00030
C00030
C00070
E00070
7000E0
7801E0
3E07C0
0FFF00
03FC00
ENDCHAR

STARTCHAR char214
ENCODING 214
SWIDTH 16 0
DWIDTH 25 0
BBX 20 19 1 0
BITMAP
400020
E3F870
4FFF20
1E0780
3801C0
7000E0
600060
E00070
C00030
C00030
C00030
C00030
C00070
E00070
7000E0
7801C0
3E07C0
1FFF00
03FC00
ENDCHAR

STARTCHAR char216
ENCODING 216
SWIDTH 16 0
DWIDTH 25 0
BBX 21 19 0 0
BITMAP
000008
01FE18
07FFB0
0F07E0
1C01E0
3801F0
300730
700E38
601818
603018
606018
60C018
718038
330038
3E0070
1C00E0
1F03E0
67FF80
E1FE00
ENDCHAR

STARTCHAR char217
ENCODING 217
SWIDTH 6 0
DWIDTH 22 0
BBX 18 23 1 0
BITMAP
078000
030000
018000
018000
01C000
F003C0
600180
600180
600180
600180
600180
600180
600180
600180
600180
600180
600180
600180
600180
700380
380F00
1FFE00
07F800
ENDCHAR

STARTCHAR char218
ENCODING 218
SWIDTH 6 0
DWIDTH 22 0
BBX 18 23 1 0
BITMAP
00F000
006000
00C000
00C000
01C000
F003C0
600180
600180
600180
600180
600180
600180
600180
600180
600180
600180
600180
600180
600180
700380
380F00
1FFE00
07F800
ENDCHAR

STARTCHAR char219
ENCODING 219
SWIDTH 6 0
DWIDTH 22 0
BBX 18 23 1 0
BITMAP
01C000
01C000
026000
063000
000000
F003C0
600180
600180
600180
600180
600180
600180
600180
600180
600180
600180
600180
600180
600180
700380
380F00
1FFE00
07F800
ENDCHAR

STARTCHAR char220
ENCODING 220
SWIDTH 6 0
DWIDTH 22 0
BBX 18 19 1 0
BITMAP
033000
F333C0
633180
600180
600180
600180
600180
600180
600180
600180
600180
600180
600180
600180
600380
700380
380F00
1FFE00
07F800
ENDCHAR

STARTCHAR char222
ENCODING 222
SWIDTH 16 0
DWIDTH 25 0
BBX 0 0 0 0
BITMAP
ENDCHAR

STARTCHAR char223
ENCODING 223
SWIDTH 12 0
DWIDTH 34 0
BBX 32 15 1 0
BITMAP
1FE00FF0
7FFA3FFD
F03C781E
C0086004
C0006000
E0007000
FF807FC0
3FF83FF8
00F8007C
001C000E
800C4006
801C400E
E038701C
7FF03FF8
1FC00FE0
ENDCHAR

STARTCHAR char224
ENCODING 224
SWIDTH 28 0
DWIDTH 18 0
BBX 16 19 0 0
BITMAP
0600
0600
0300
0100
03C0
0380
07C0
06C0
0EE0
0C60
0C70
1830
1838
3FF8
3FF8
701C
600C
E00E
E00F
ENDCHAR

STARTCHAR char225
ENCODING 225
SWIDTH 28 0
DWIDTH 18 0
BBX 16 19 0 0
BITMAP
00C0
0180
0180
0100
03C0
0380
07C0
06C0
0EE0
0C60
0C70
1830
1838
3FF8
3FF8
701C
600C
E00E
E00F
ENDCHAR

STARTCHAR char226
ENCODING 226
SWIDTH 28 0
DWIDTH 18 0
BBX 16 20 0 0
BITMAP
0380
0380
04C0
0CE0
1870
03C0
0380
07C0
06C0
0EE0
0C60
0C70
1830
1838
3FF8
3FF8
701C
600C
E00E
E00F
ENDCHAR

STARTCHAR char227
ENCODING 227
SWIDTH 28 0
DWIDTH 18 0
BBX 16 19 0 0
BITMAP
0E30
1FF0
11E0
0000
03C0
0380
07C0
06C0
0EE0
0C60
0C70
1830
1838
3FF8
3FF8
701C
600C
E00E
E00F
ENDCHAR

STARTCHAR char228
ENCODING 228
SWIDTH 28 0
DWIDTH 18 0
BBX 16 18 0 0
BITMAP
0C60
0C60
0000
0380
0380
0380
06C0
06C0
0C60
0C60
1C30
1830
3FF8
3FF8
601C
601C
E00E
E00F
ENDCHAR

STARTCHAR char229
ENCODING 229
SWIDTH 28 0
DWIDTH 18 0
BBX 17 19 -1 0
BITMAP
01C000
03E000
032000
03E000
01E000
01C000
03E000
036000
077000
063000
063800
0C1800
0C1800
1FFC00
1FFC00
300E00
300600
700700
F00780
ENDCHAR

STARTCHAR char230
ENCODING 230
SWIDTH 13 0
DWIDTH 24 0
BBX 22 15 -1 0
BITMAP
01FFF8
01FFF8
033004
033000
063000
063000
0E3FE0
0C3FE0
1C3060
1FF000
1FF000
303000
303000
603FF8
703FF8
ENDCHAR

STARTCHAR char231
ENCODING 231
SWIDTH 31 0
DWIDTH 19 0
BBX 16 20 1 -5
BITMAP
07F0
1FFD
3C0E
7002
6000
C000
C000
C000
C000
C000
E002
6002
380F
1FFC
07E0
0380
03C0
00C0
0FC0
0780
ENDCHAR

STARTCHAR char232
ENCODING 232
SWIDTH 28 0
DWIDTH 18 0
BBX 14 19 1 0
BITMAP
0C00
0C00
0600
0200
7FFC
7FFC
6004
6000
6000
6000
7FE0
7FE0
6020
6000
6000
6000
6000
7FFC
7FFC
ENDCHAR

STARTCHAR char233
ENCODING 233
SWIDTH 28 0
DWIDTH 18 0
BBX 14 19 1 0
BITMAP
0180
0300
0300
0200
7FFC
7FFC
6004
6000
6000
6000
7FE0
7FE0
6020
6000
6000
6000
6000
7FFC
7FFC
ENDCHAR

STARTCHAR char234
ENCODING 234
SWIDTH 28 0
DWIDTH 18 0
BBX 14 20 1 0
BITMAP
0700
0700
0980
18C0
38E0
7FFC
7FFC
6004
6000
6000
6000
7FE0
7FE0
6020
6000
6000
6000
6000
7FFC
7FFC
ENDCHAR

STARTCHAR char235
ENCODING 235
SWIDTH 28 0
DWIDTH 18 0
BBX 14 19 1 0
BITMAP
0040
18C0
18C0
0000
7FFC
7FFC
6004
6000
6000
6000
7FE0
7FE0
6020
6000
6000
6000
6000
7FFC
FFFC
ENDCHAR

STARTCHAR char236
ENCODING 236
SWIDTH 25 0
DWIDTH 7 0
BBX 5 19 0 0
BITMAP
E0
60
20
30
78
30
30
30
30
30
30
30
30
30
30
30
30
30
78
ENDCHAR

STARTCHAR char237
ENCODING 237
SWIDTH 25 0
DWIDTH 7 0
BBX 6 19 1 0
BITMAP
38
30
30
20
F0
60
60
60
60
60
60
60
60
60
60
60
60
60
F0
ENDCHAR

STARTCHAR char238
ENCODING 238
SWIDTH 25 0
DWIDTH 7 0
BBX 10 20 -1 0
BITMAP
1C00
1E00
2600
6300
E3C0
1C00
1800
1800
1800
1800
1800
1800
1800
1800
1800
1800
1800
1800
1800
1C00
ENDCHAR

STARTCHAR char239
ENCODING 239
SWIDTH 25 0
DWIDTH 7 0
BBX 7 18 -1 0
BITMAP
C6
C6
00
38
18
18
18
18
18
18
18
18
18
18
18
18
18
38
ENDCHAR

STARTCHAR char241
ENCODING 241
SWIDTH 35 0
DWIDTH 20 0
BBX 16 19 1 0
BITMAP
0E30
1FF0
11E0
0000
F00F
7006
7806
7C06
6E06
6706
6386
61C6
60C6
60E6
6076
603E
601E
600E
E00E
ENDCHAR

STARTCHAR char242
ENCODING 242
SWIDTH 2 0
DWIDTH 21 0
BBX 17 19 1 0
BITMAP
070000
030000
010000
018000
07E000
1FF800
381E00
700700
600300
C00380
C00180
C00180
C00180
C00180
E00300
600700
380E00
1FFC00
07F000
ENDCHAR

STARTCHAR char243
ENCODING 243
SWIDTH 2 0
DWIDTH 21 0
BBX 17 19 1 0
BITMAP
00E000
00C000
008000
018000
07E000
1FF800
381E00
700700
600300
C00380
C00180
C00180
C00180
C00180
E00300
600700
380E00
1FFC00
07F000
ENDCHAR

STARTCHAR char244
ENCODING 244
SWIDTH 2 0
DWIDTH 21 0
BBX 17 19 1 0
BITMAP
018000
02C000
066000
0C7000
07E000
1FF800
381E00
700700
600300
C00380
C00180
C00180
C00180
C00180
E00300
600700
380E00
1FFC00
07F000
ENDCHAR

STARTCHAR char245
ENCODING 245
SWIDTH 2 0
DWIDTH 21 0
BBX 17 19 1 0
BITMAP
0F1000
1FF000
18E000
000000
07E000
1FF800
381E00
700700
600300
C00380
C00180
C00180
C00180
C00180
E00300
600700
380E00
1FFC00
07F000
ENDCHAR

STARTCHAR char246
ENCODING 246
SWIDTH 2 0
DWIDTH 21 0
BBX 17 18 1 0
BITMAP
063000
063000
000000
07E000
1FF800
381E00
700700
E00300
C00380
C00180
C00180
C00180
C00180
E00300
600700
380E00
1FFC00
07F000
ENDCHAR

STARTCHAR char247
ENCODING 247
SWIDTH 17 0
DWIDTH 15 0
BBX 13 9 0 2
BITMAP
0600
0600
0000
0000
FFF8
FFF8
0000
0600
0600
ENDCHAR

STARTCHAR char248
ENCODING 248
SWIDTH 2 0
DWIDTH 21 0
BBX 18 15 0 0
BITMAP
03F0C0
0FFF80
1C0F00
380780
700D80
6039C0
6060C0
60C0C0
6180C0
6300C0
360180
3C0380
1C0700
7FFE00
43F800
ENDCHAR

STARTCHAR char249
ENCODING 249
SWIDTH 35 0
DWIDTH 20 0
BBX 16 19 1 0
BITMAP
0E00
0600
0300
0100
E00F
6006
6006
6006
6006
6006
6006
6006
6006
6006
6006
6006
701C
3FFC
0FF0
ENDCHAR

STARTCHAR char250
ENCODING 250
SWIDTH 35 0
DWIDTH 20 0
BBX 16 19 1 0
BITMAP
00C0
0180
0180
0300
E00F
6006
6006
6006
6006
6006
6006
6006
6006
6006
6006
6006
701C
3FFC
0FF0
ENDCHAR

STARTCHAR char251
ENCODING 251
SWIDTH 35 0
DWIDTH 20 0
BBX 16 20 1 0
BITMAP
0380
0380
06C0
0C60
1C70
E00F
6006
6006
6006
6006
6006
6006
6006
6006
6006
6006
6006
701C
3FFC
0FF0
ENDCHAR

STARTCHAR char252
ENCODING 252
SWIDTH 35 0
DWIDTH 20 0
BBX 16 18 1 0
BITMAP
0C60
0C60
0000
E00F
6006
6006
6006
6006
6006
6006
6006
6006
6006
6006
6006
700C
3FFC
0FF0
ENDCHAR

STARTCHAR char255
ENCODING 255
SWIDTH 21 0
DWIDTH 16 0
BBX 15 18 0 0
BITMAP
18C0
18C0
0000
E01E
6018
3038
3830
1C60
0CC0
0E80
0700
0300
0200
0200
0200
0200
0200
0300
ENDCHAR
ENDFONT
